<svg version="1.1" id="Layer_1" xmlns="http://www.w3.org/2000/svg" xmlns:xlink="http://www.w3.org/1999/xlink" x="0px" y="0px"
	 width="100%" viewBox="0 0 2000 2000" enable-background="new 0 0 2000 2000" xml:space="preserve">
<path fill="#FDDE00" opacity="1.000000" stroke="none" 
	d="
M1064.000000,2001.000000 
	C1022.312439,2001.000000 980.624878,2001.000000 938.752563,2000.610840 
	C938.049561,1999.832397 937.556946,1999.144653 937.009277,1999.097534 
	C920.653015,1997.692871 904.276917,1996.503052 887.935547,1994.947388 
	C876.719604,1993.879517 865.483337,1992.723633 854.376221,1990.882690 
	C836.451233,1987.912231 818.614502,1984.400635 800.759521,1981.017456 
	C768.807068,1974.962769 737.341187,1966.923340 706.387268,1956.992920 
	C687.816650,1951.035400 669.247559,1944.952393 651.076843,1937.897949 
	C625.671021,1928.034668 600.333557,1917.879883 575.539062,1906.592651 
	C555.048218,1897.264893 535.121216,1886.592163 515.432617,1875.637939 
	C495.221680,1864.393188 475.061890,1852.892090 455.861176,1840.037231 
	C431.457611,1823.699219 407.676086,1806.365234 384.316986,1788.554932 
	C366.001556,1774.589966 348.439270,1759.586914 331.098724,1744.409424 
	C317.534882,1732.537842 304.747559,1719.770752 291.774719,1707.236328 
	C287.031403,1702.653564 282.720337,1697.619995 278.259491,1692.748535 
	C267.800751,1681.326904 257.121674,1670.094360 246.994781,1658.384888 
	C235.451508,1645.037720 223.958817,1631.600708 213.261749,1617.578979 
	C198.592056,1598.349731 184.353714,1578.768677 170.542755,1558.912598 
	C151.119202,1530.986938 133.475372,1501.883545 118.109734,1471.557495 
	C103.411499,1442.548584 89.235916,1413.209961 76.385063,1383.347290 
	C62.819279,1351.823120 51.252975,1319.430054 42.079483,1286.307617 
	C34.971878,1260.644287 28.378395,1234.827148 22.167892,1208.931763 
	C19.069517,1196.012817 17.214746,1182.786133 15.031692,1169.659668 
	C13.163054,1158.423950 11.539464,1147.144897 9.969713,1135.862549 
	C8.217754,1123.270630 6.381028,1110.680664 5.083435,1098.038330 
	C4.009243,1087.572510 3.709152,1077.028442 2.918437,1066.530151 
	C2.851674,1065.643677 1.665889,1064.841431 0.999985,1064.000000 
	C1.000000,1021.979126 1.000000,979.958191 1.398007,937.721558 
	C2.197314,935.821167 2.844104,934.152710 2.956670,932.448975 
	C3.402506,925.701416 3.402993,918.914551 4.085389,912.194763 
	C5.173139,901.483276 6.676218,890.813904 7.998658,880.126160 
	C9.381353,868.951416 10.426146,857.722290 12.221004,846.614258 
	C14.496287,832.533020 17.154047,818.503052 20.058016,804.536499 
	C23.480927,788.074036 26.637453,771.504944 31.173347,755.336609 
	C38.920498,727.721558 47.336803,700.282227 56.051334,672.953796 
	C66.608398,639.847290 79.909897,607.754272 95.087143,576.541565 
	C108.400070,549.162964 122.364479,522.042664 137.388596,495.573151 
	C149.192917,474.776306 162.567780,454.812378 176.139038,435.093750 
	C189.212418,416.098572 202.909470,397.475372 217.287796,379.450745 
	C233.407242,359.243469 250.197250,339.531128 267.462067,320.291321 
	C279.378662,307.011536 292.346680,294.636353 305.298462,282.334534 
	C320.591522,267.808929 336.195129,253.596191 352.003296,239.631790 
	C363.391754,229.571609 374.808533,219.404083 387.137939,210.576797 
	C414.810486,190.764496 442.658936,171.139664 471.207764,152.629059 
	C491.821594,139.263336 513.430054,127.355392 535.057983,115.653229 
	C553.151978,105.863159 571.654114,96.720840 590.456299,88.374893 
	C610.790588,79.348877 631.473083,71.001816 652.386292,63.413204 
	C676.462402,54.676937 700.774963,46.479607 725.326721,39.201504 
	C746.060181,33.055271 767.216187,28.269394 788.310730,23.428347 
	C802.683105,20.129984 817.239197,17.587055 831.774231,15.057093 
	C843.160889,13.075127 854.630432,11.552394 866.082947,9.969384 
	C878.686340,8.227301 891.284912,6.381524 903.937195,5.083525 
	C914.411499,4.008956 924.963989,3.709124 935.470764,2.918444 
	C936.356934,2.851754 937.158875,1.665884 938.000000,0.999982 
	C979.687561,1.000000 1021.375183,1.000000 1063.246826,1.389077 
	C1064.117310,2.176777 1064.776978,2.865611 1065.494019,2.931614 
	C1084.272461,4.660189 1103.068726,6.201487 1121.835327,8.045946 
	C1132.882812,9.131729 1143.958130,10.251553 1154.890137,12.120732 
	C1172.142944,15.070651 1189.420654,18.092756 1206.445190,22.112358 
	C1235.194092,28.900213 1263.939453,35.840889 1292.330322,43.961979 
	C1313.215698,49.936172 1333.762085,57.302864 1354.044312,65.125526 
	C1378.399292,74.518997 1402.618774,84.391411 1426.326294,95.296967 
	C1446.924683,104.772339 1467.023315,115.450409 1486.802856,126.558487 
	C1508.086548,138.511215 1529.247314,150.825485 1549.537964,164.366394 
	C1572.878540,179.942780 1595.458008,196.702301 1617.887085,213.586990 
	C1633.022217,224.980881 1647.596680,237.166687 1661.921265,249.576279 
	C1675.391479,261.245789 1688.526489,273.347412 1701.215820,285.860352 
	C1713.580566,298.053314 1725.528564,310.711151 1737.056641,323.700073 
	C1753.382690,342.095245 1769.653442,360.582611 1785.020874,379.772919 
	C1799.640503,398.029236 1813.492188,416.942780 1826.923462,436.098755 
	C1847.560791,465.531799 1866.274536,496.253296 1882.824585,528.133240 
	C1897.365234,556.142578 1911.583496,584.467957 1923.499268,613.651917 
	C1937.070557,646.890869 1948.799072,680.960510 1959.685181,715.191711 
	C1967.797241,740.700073 1973.598511,766.967224 1979.829590,793.039673 
	C1982.918457,805.964294 1984.783569,819.190552 1986.968018,832.319336 
	C1988.837891,843.556885 1990.463501,854.837524 1992.033203,866.121948 
	C1993.785278,878.716370 1995.619751,891.309143 1996.916748,903.954041 
	C1997.990479,914.421631 1998.290771,924.967285 1999.081543,935.467285 
	C1999.148315,936.354675 2000.334106,937.157776 2001.000000,938.000000 
	C2001.000000,979.687561 2001.000000,1021.375183 2000.610718,1063.247314 
	C1999.822998,1064.118286 1999.120117,1064.784546 1999.073364,1065.494019 
	C1998.650146,1071.913086 1998.371826,1078.341675 1997.990601,1084.763672 
	C1997.688354,1089.857056 1997.518311,1094.971680 1996.908936,1100.031006 
	C1995.388428,1112.654785 1993.682617,1125.256592 1991.990356,1137.859131 
	C1990.668091,1147.706177 1989.613770,1157.607788 1987.800171,1167.366089 
	C1984.810913,1183.448486 1981.797363,1199.555298 1977.905640,1215.434204 
	C1971.335083,1242.243164 1964.628784,1269.044434 1956.914062,1295.538696 
	C1951.155151,1315.317017 1944.345459,1334.851074 1936.870117,1354.052734 
	C1927.158813,1378.998047 1916.800293,1403.720581 1905.808960,1428.128662 
	C1898.159058,1445.116333 1889.325684,1461.604736 1880.381958,1477.966797 
	C1870.993164,1495.142944 1861.352417,1512.224854 1850.897095,1528.763428 
	C1837.577515,1549.832886 1824.140991,1570.919189 1809.270264,1590.892944 
	C1792.024414,1614.056519 1773.540649,1636.336304 1754.886108,1658.401001 
	C1741.277832,1674.496826 1726.623169,1689.716919 1712.224976,1705.130981 
	C1707.272217,1710.433105 1701.697266,1715.156128 1696.382080,1720.117676 
	C1686.602417,1729.246460 1677.036133,1738.621338 1666.958984,1747.409790 
	C1652.390503,1760.115356 1637.824829,1772.877563 1622.567749,1784.726685 
	C1602.948242,1799.963867 1582.848145,1814.607056 1562.587646,1828.988281 
	C1534.318115,1849.054321 1504.597046,1866.931519 1473.837280,1882.800171 
	C1444.217651,1898.080688 1414.019287,1912.375610 1383.417114,1925.578003 
	C1351.753540,1939.237915 1319.205811,1950.847168 1285.890259,1959.971069 
	C1260.352295,1966.965210 1234.714478,1973.633301 1208.971802,1979.825684 
	C1196.052002,1982.933350 1182.819214,1984.776001 1169.691162,1986.970215 
	C1158.619751,1988.820557 1147.508057,1990.444092 1136.390747,1992.000732 
	C1123.797852,1993.764038 1111.207397,1995.620483 1098.562378,1996.912231 
	C1087.922852,1997.999023 1077.203369,1998.291138 1066.530151,1999.081543 
	C1065.644287,1999.147339 1064.841431,2000.333984 1064.000000,2001.000000 
M1228.597778,1456.681030 
	C1250.050537,1450.586182 1270.176880,1441.660156 1288.133423,1428.285889 
	C1327.141968,1399.232056 1350.405884,1359.839722 1363.077515,1313.564087 
	C1364.698486,1307.644287 1365.690552,1301.523193 1367.680298,1295.738281 
	C1378.428589,1264.492188 1385.449341,1232.488403 1388.040894,1199.524170 
	C1389.534424,1180.526245 1389.153931,1161.579834 1385.900879,1142.802002 
	C1381.595337,1117.948608 1374.109985,1094.352173 1356.954224,1074.129272 
	C1356.687256,1073.001343 1356.379395,1071.881470 1356.158813,1070.744507 
	C1348.483154,1031.175537 1334.746582,993.627991 1317.554810,957.339661 
	C1297.092041,914.146484 1271.464600,874.273865 1239.962891,838.168396 
	C1218.996704,814.138062 1195.956421,792.437134 1170.814819,772.889587 
	C1148.826904,755.794067 1125.415039,740.878052 1100.724365,728.073669 
	C1087.154785,721.036560 1073.366455,714.150452 1059.055786,708.883606 
	C1041.911743,702.573975 1024.619873,706.299072 1007.906128,712.158081 
	C1004.091187,713.495422 1002.249695,712.914978 1000.589111,709.187439 
	C996.122253,699.160889 991.788635,689.025574 986.530334,679.410156 
	C970.812805,650.669006 955.477539,621.670166 938.476196,593.693726 
	C922.249146,566.991455 904.107056,541.434204 880.184448,520.733276 
	C871.078247,512.853394 861.329651,505.873230 849.111633,503.572998 
	C838.743896,501.621124 829.580811,503.294922 823.132385,512.701477 
	C822.319458,513.887268 821.095581,514.791321 819.450623,516.164246 
	C809.478455,528.051636 804.461121,542.349060 800.076721,556.852783 
	C792.217163,582.852356 787.691284,609.546143 785.187256,636.530640 
	C783.008057,660.014038 780.927307,683.553955 780.197510,707.112000 
	C779.362854,734.059082 780.068237,761.053833 779.724243,788.621277 
	C765.072388,795.295166 750.421875,801.972229 735.767334,808.640259 
	C732.945251,809.924377 732.102539,807.875427 730.876709,805.953430 
	C718.992432,787.320068 707.644531,768.303284 694.929260,750.251160 
	C676.500488,724.087280 655.772461,699.826538 629.954163,680.449585 
	C610.291809,665.692688 589.234741,654.317261 563.597900,656.078064 
	C545.139404,657.345764 530.198486,665.067200 520.218872,681.374329 
	C511.522980,695.583923 508.596100,711.588745 504.456329,727.979309 
	C502.621063,733.324768 500.586426,738.611206 498.983093,744.025269 
	C489.075287,777.481567 483.869873,811.796570 481.051056,846.475525 
	C479.291168,868.126587 477.944366,889.829590 477.157806,911.536255 
	C476.422119,931.840271 476.381134,952.182617 476.564667,972.503235 
	C476.752350,993.282166 477.572021,1014.055542 478.145630,1034.830566 
	C478.254913,1038.787354 478.635437,1042.739136 478.667389,1046.695190 
	C478.751617,1057.122559 480.290619,1067.402832 476.402740,1077.842529 
	C457.529449,1128.520874 441.525452,1180.121094 427.909363,1232.469971 
	C413.605438,1287.463379 402.680023,1343.108643 398.344818,1399.770630 
	C396.628235,1422.206665 397.878784,1444.973999 399.239777,1467.502197 
	C400.056000,1481.013428 402.756256,1494.603638 406.239349,1507.725830 
	C417.795380,1551.261475 440.869629,1587.120605 479.050018,1612.188721 
	C511.915649,1633.767456 548.476440,1643.378906 587.431824,1645.080933 
	C590.219849,1645.202759 593.587524,1645.684937 595.625793,1647.320435 
	C633.267456,1677.523438 674.176147,1702.213257 718.887329,1720.412231 
	C755.949829,1735.498047 794.240356,1745.285767 834.536255,1746.092773 
	C879.934875,1747.001831 922.279358,1736.368286 961.259705,1712.956909 
	C981.906677,1700.556396 1000.710632,1685.793701 1017.825928,1667.944336 
	C1018.939636,1667.619263 1020.040771,1667.240601 1021.168823,1666.976685 
	C1057.566284,1658.460205 1089.033081,1641.105103 1115.112915,1614.261597 
	C1123.453979,1605.676025 1131.453369,1596.754395 1139.489746,1587.878540 
	C1145.064209,1581.721802 1151.256348,1575.917358 1155.759277,1569.031494 
	C1180.063354,1531.866089 1203.926025,1494.411987 1228.597778,1456.681030 
M1101.298462,515.759766 
	C1102.861816,511.730927 1104.630127,507.768250 1105.955322,503.662598 
	C1114.602539,476.873169 1117.744507,449.112183 1119.782837,421.238098 
	C1122.396362,385.499481 1121.913086,349.710419 1119.704468,313.966339 
	C1119.153687,305.050659 1117.895264,296.059906 1115.804688,287.382477 
	C1111.258911,268.514008 1099.788330,258.684113 1080.421631,257.010773 
	C1071.534058,256.242859 1062.482300,256.373444 1053.574707,257.035431 
	C1032.352905,258.612671 1018.087036,271.351715 1016.267761,292.425262 
	C1014.804016,309.379211 1015.340271,326.586639 1016.093018,343.632843 
	C1017.342102,371.920593 1021.816223,399.843323 1028.035645,427.454742 
	C1034.260010,455.088593 1041.967285,482.269592 1054.991089,507.614441 
	C1059.483521,516.356934 1064.425293,524.896606 1072.417236,531.071533 
	C1079.904541,536.856567 1087.040283,536.327454 1093.018066,529.044006 
	C1096.149780,525.228333 1098.392944,520.683350 1101.298462,515.759766 
M1527.605347,631.102600 
	C1543.089233,620.716736 1558.900269,610.777710 1573.928223,599.769531 
	C1582.301636,593.635864 1590.060425,586.318726 1596.855835,578.462158 
	C1605.399048,568.585144 1607.117920,556.633362 1602.587280,544.217468 
	C1597.672607,530.749817 1590.308228,518.719238 1580.001831,508.684570 
	C1571.389160,500.299011 1560.905884,496.062653 1549.005859,498.521759 
	C1541.467773,500.079498 1533.822266,502.725800 1527.132812,506.495148 
	C1502.253296,520.513977 1479.517456,537.684814 1457.804443,556.165161 
	C1429.061401,580.628845 1402.219238,606.949158 1380.518799,638.064636 
	C1373.171753,648.599243 1366.408203,659.514221 1363.473633,672.261536 
	C1360.838379,683.708740 1365.093018,690.239197 1376.676147,692.252502 
	C1380.236450,692.871399 1384.110107,693.314087 1387.571899,692.576965 
	C1399.250977,690.090210 1411.110718,687.912415 1422.358643,684.039917 
	C1459.552002,671.235046 1493.635742,652.043579 1527.605347,631.102600 
M1250.143188,459.709076 
	C1249.980103,460.694183 1249.849976,461.686066 1249.648926,462.663361 
	C1244.646362,487.002808 1240.837036,511.505310 1242.145386,536.435791 
	C1242.559082,544.317200 1243.942017,552.356689 1246.302734,559.877686 
	C1249.774536,570.938110 1257.934570,573.909912 1268.336548,568.859619 
	C1271.456543,567.344788 1274.459839,565.441467 1277.192261,563.301941 
	C1291.797241,551.865723 1302.929077,537.295837 1313.370605,522.210754 
	C1338.007568,486.616882 1357.793213,448.340546 1374.795166,408.631927 
	C1381.062500,393.994568 1386.911499,379.053192 1391.327148,363.780914 
	C1396.324219,346.497314 1391.593872,331.484558 1376.189453,320.859863 
	C1365.967896,313.809967 1354.931030,308.454468 1342.837036,305.443207 
	C1328.686523,301.919952 1316.025513,304.978088 1306.551880,316.056610 
	C1300.469116,323.169708 1295.207886,331.306519 1291.090576,339.724060 
	C1272.514160,377.702271 1259.532837,417.666626 1250.143188,459.709076 
M1359.301025,727.904663 
	C1359.020020,723.626038 1359.361572,719.194397 1358.353760,715.094421 
	C1352.993896,693.290405 1331.925903,680.327576 1310.310303,685.212769 
	C1289.270752,689.967712 1276.013428,710.459229 1279.944458,732.148010 
	C1283.352783,750.953247 1301.579346,765.683533 1320.324585,764.782471 
	C1340.927002,763.792114 1357.332764,748.587219 1359.301025,727.904663 
M1227.979614,585.502319 
	C1227.320435,585.592834 1226.662109,585.690247 1226.001953,585.772644 
	C1209.836792,587.791382 1198.551636,596.431885 1192.784180,611.528442 
	C1186.899902,626.931091 1189.943970,641.282532 1201.131104,653.143005 
	C1212.322998,665.008606 1226.488281,668.732849 1242.219727,663.960205 
	C1261.820190,658.013733 1273.351196,638.611694 1269.878052,618.336182 
	C1266.565063,598.995544 1249.143555,584.992310 1227.979614,585.502319 
M1080.264404,633.504395 
	C1105.280273,637.217712 1127.131958,619.938660 1127.932495,595.811096 
	C1128.631958,574.737610 1112.892700,555.973999 1092.900635,554.047546 
	C1070.881104,551.925720 1051.128296,566.434387 1048.071411,586.975281 
	C1044.784302,609.062683 1057.895508,628.413696 1080.264404,633.504395 
z"/>
<path fill="#E78C19" opacity="1.000000" stroke="none" 
	d="
M505.010620,727.427002 
	C508.596100,711.588745 511.522980,695.583923 520.218872,681.374329 
	C530.198486,665.067200 545.139404,657.345764 563.597900,656.078064 
	C589.234741,654.317261 610.291809,665.692688 629.954163,680.449585 
	C655.772461,699.826538 676.500488,724.087280 694.929260,750.251160 
	C707.644531,768.303284 718.992432,787.320068 730.876709,805.953430 
	C732.102539,807.875427 732.945251,809.924377 735.767334,808.640259 
	C750.421875,801.972229 765.072388,795.295166 780.295044,788.371704 
	C785.161194,786.369812 789.502502,784.721497 793.742493,782.844299 
	C803.447571,778.547485 813.103271,774.139038 822.620178,769.847595 
	C819.558044,753.131592 816.470886,736.977478 813.655762,720.776062 
	C806.259888,678.211792 801.373962,635.396240 803.125366,592.117432 
	C804.165466,566.415466 807.185303,540.972839 819.812988,517.778198 
	C820.105225,517.241394 819.988159,516.481628 820.062073,515.825867 
	C821.095581,514.791321 822.319458,513.887268 823.132385,512.701477 
	C829.580811,503.294922 838.743896,501.621124 849.111633,503.572998 
	C861.329651,505.873230 871.078247,512.853394 880.184448,520.733276 
	C904.107056,541.434204 922.249146,566.991455 938.476196,593.693726 
	C955.477539,621.670166 970.812805,650.669006 986.530334,679.410156 
	C991.788635,689.025574 996.122253,699.160889 1000.589111,709.187439 
	C1002.249695,712.914978 1004.091187,713.495422 1007.906128,712.158081 
	C1024.619873,706.299072 1041.911743,702.573975 1059.055786,708.883606 
	C1073.366455,714.150452 1087.154785,721.036560 1100.724365,728.073669 
	C1125.415039,740.878052 1148.826904,755.794067 1170.814819,772.889587 
	C1195.956421,792.437134 1218.996704,814.138062 1239.962891,838.168396 
	C1271.464600,874.273865 1297.092041,914.146484 1317.554810,957.339661 
	C1334.746582,993.627991 1348.483154,1031.175537 1356.158813,1070.744507 
	C1356.379395,1071.881470 1356.687256,1073.001343 1356.646973,1074.416992 
	C1346.854492,1065.748779 1335.398193,1060.732544 1322.825684,1057.961182 
	C1299.392090,1052.795776 1276.081909,1055.143799 1252.905640,1059.551392 
	C1207.151733,1068.252808 1163.789307,1084.322998 1122.154541,1104.703369 
	C1080.617676,1125.035767 1039.829956,1146.900269 998.742676,1168.148804 
	C978.788635,1178.468018 958.288574,1187.912476 939.159546,1199.593384 
	C921.011658,1210.675171 904.155823,1210.050415 886.765686,1199.638184 
	C853.281860,1179.589478 818.673706,1161.879639 781.876770,1148.678345 
	C754.810608,1138.968018 727.215576,1131.705811 698.134216,1133.068604 
	C671.707458,1134.307007 651.448792,1145.676025 638.867981,1169.807739 
	C626.256409,1193.998535 623.622742,1219.500732 627.564514,1245.998169 
	C632.087769,1276.403564 643.963196,1304.100952 659.062866,1330.622559 
	C669.622742,1349.170288 684.448425,1364.396729 697.563965,1380.953003 
	C701.787476,1386.284424 705.775757,1392.254639 711.173035,1396.111694 
	C723.200989,1404.707520 735.682922,1412.820190 748.626709,1419.956299 
	C807.139771,1452.215576 870.551392,1468.120117 936.547974,1474.836792 
	C970.733826,1478.316162 1005.008545,1477.648315 1039.291992,1476.199951 
	C1057.548706,1475.428589 1075.833618,1475.342651 1094.103760,1474.866577 
	C1099.879150,1474.716064 1105.710693,1474.748169 1111.409058,1473.939453 
	C1150.269043,1468.425049 1189.100220,1462.708618 1227.940796,1457.057373 
	C1203.926025,1494.411987 1180.063354,1531.866089 1155.759277,1569.031494 
	C1151.256348,1575.917358 1145.064209,1581.721802 1139.489746,1587.878540 
	C1131.453369,1596.754395 1123.453979,1605.676025 1115.112915,1614.261597 
	C1089.033081,1641.105103 1057.566284,1658.460205 1021.168823,1666.976685 
	C1020.040771,1667.240601 1018.939636,1667.619263 1017.023071,1667.996582 
	C994.155701,1672.359741 971.914490,1673.138184 949.609497,1670.768188 
	C913.738220,1666.956665 879.580261,1656.702515 846.599304,1642.370239 
	C791.364929,1618.367310 741.380005,1585.951660 695.086670,1547.620117 
	C693.360901,1546.191040 690.733948,1545.283203 688.471375,1545.161133 
	C673.021484,1544.327026 657.520264,1544.233398 642.104126,1543.026245 
	C607.531189,1540.318970 574.035706,1532.934326 542.495911,1518.029907 
	C503.039917,1499.384277 473.369324,1470.887329 456.039703,1430.500244 
	C436.256866,1384.395996 435.106720,1336.429688 443.593323,1287.865845 
	C449.601807,1253.482666 456.478821,1219.250244 463.072144,1184.970703 
	C465.800842,1170.783569 467.295593,1156.132568 471.940674,1142.580078 
	C491.300293,1086.095947 511.666840,1029.957031 531.557312,973.653809 
	C532.454834,971.113037 533.160400,967.990906 532.529785,965.500671 
	C522.765320,926.943237 514.676819,888.041321 509.479797,848.614380 
	C506.616760,826.894104 504.167755,805.032227 503.292786,783.163696 
	C502.551544,764.637390 504.341034,746.009766 505.010620,727.427002 
M698.847046,833.652954 
	C695.816223,829.275208 692.859375,824.843994 689.742188,820.528625 
	C674.167114,798.966858 658.866699,777.195374 642.802917,756.003174 
	C635.645569,746.560791 626.202332,739.166809 615.257141,734.172119 
	C606.544861,730.196411 597.585571,729.040100 588.985596,734.393005 
	C577.620605,741.466980 570.156921,751.462585 567.042847,764.657776 
	C563.710144,778.779785 564.020752,793.116943 565.338623,807.295593 
	C567.876709,834.602966 572.966858,861.527466 579.979980,888.062012 
	C584.520935,905.243103 588.997803,922.442749 593.743896,939.567444 
	C595.919800,947.418579 600.833923,953.450806 609.461365,953.162781 
	C618.627441,952.856873 628.129150,952.101013 636.790710,949.354370 
	C655.168701,943.526733 671.427185,933.265625 686.844604,921.777039 
	C697.995728,913.467712 708.272461,904.277527 714.847656,891.716736 
	C721.326416,879.340149 722.098267,866.855530 714.211853,854.823242 
	C709.568176,847.738403 704.229858,841.108887 698.847046,833.652954 
M873.756287,742.640015 
	C881.982971,760.550659 896.094849,769.033081 915.615784,767.885559 
	C928.704468,767.116089 941.147034,763.543518 952.343628,756.398499 
	C964.291809,748.773743 971.033020,738.080505 968.851562,723.731384 
	C967.729248,716.349487 964.875366,709.010742 961.615051,702.223755 
	C956.222229,690.997559 949.554016,680.390137 943.982666,669.242432 
	C932.011169,645.288391 921.089661,620.776367 905.799805,598.628662 
	C899.555786,589.583984 893.485718,580.072632 883.404663,574.915161 
	C870.781982,568.457397 864.661316,571.281067 861.940552,584.171936 
	C858.731079,599.378174 860.237610,614.658142 861.242188,629.884155 
	C862.947632,655.733459 864.993958,681.562317 867.137451,707.379761 
	C868.109131,719.083618 867.985107,731.044800 873.756287,742.640015 
M862.810364,984.927063 
	C856.877930,967.327087 845.787598,959.280884 829.019165,961.174438 
	C823.996643,961.741577 818.836670,963.302917 814.294556,965.537048 
	C792.817688,976.100769 779.439697,993.962646 771.040283,1015.774597 
	C765.157349,1031.051636 762.163391,1046.728882 767.995300,1062.887817 
	C771.802307,1073.436157 778.646301,1080.521973 789.646729,1083.873535 
	C798.530945,1086.580200 806.439331,1083.666626 814.125671,1080.476074 
	C828.742065,1074.409058 839.631714,1063.610107 848.116516,1050.522461 
	C860.904236,1030.797852 868.303711,1009.678772 862.810364,984.927063 
M1088.350586,881.936584 
	C1087.216187,884.336731 1086.152710,886.773621 1084.934082,889.130188 
	C1081.182129,896.385437 1082.813477,903.302673 1087.603760,908.979370 
	C1091.587524,913.700134 1096.392090,918.439575 1101.844482,921.090149 
	C1129.779785,934.670349 1158.390625,935.156189 1186.417236,921.794739 
	C1209.223511,910.921997 1212.158081,892.711975 1195.362305,873.822998 
	C1165.536987,840.280762 1113.642700,843.937195 1088.350586,881.936584 
M915.916626,1098.406006 
	C905.287903,1107.275146 892.360046,1109.318237 879.119080,1110.501465 
	C878.110535,1115.631714 879.776184,1119.977661 883.381470,1122.765991 
	C888.039612,1126.368408 893.130920,1129.905029 898.610474,1131.854126 
	C912.504578,1136.796143 926.848877,1138.346191 941.614929,1135.651978 
	C953.640015,1133.458008 965.434875,1130.852539 975.846008,1124.113892 
	C982.717712,1119.666138 989.298218,1114.403687 988.732422,1105.320312 
	C988.150818,1095.982422 980.833069,1091.414673 973.155457,1088.135986 
	C957.275391,1081.354370 940.606506,1080.947632 923.784729,1083.205322 
	C922.710449,1083.349487 921.053772,1085.683716 921.151550,1086.877319 
	C921.531921,1091.517944 919.574036,1094.900024 915.916626,1098.406006 
M1095.428589,1071.024902 
	C1099.791382,1073.694580 1103.858398,1077.173096 1108.567749,1078.894653 
	C1129.470581,1086.535767 1150.586304,1085.653198 1171.594360,1079.078491 
	C1180.893677,1076.168213 1189.421387,1071.921143 1196.171021,1064.520264 
	C1201.552490,1058.619751 1202.013306,1047.322510 1194.684937,1041.881958 
	C1191.636841,1039.619019 1188.470093,1037.347290 1185.031372,1035.807373 
	C1168.319824,1028.323975 1150.835571,1029.292480 1132.849121,1031.041870 
	C1134.685913,1040.479004 1129.427002,1045.675415 1122.642090,1049.592773 
	C1118.659424,1051.892456 1114.269653,1053.754272 1109.829224,1054.930054 
	C1103.480347,1056.611206 1096.917603,1057.484009 1089.085449,1058.958130 
	C1091.172607,1063.066406 1093.057861,1066.776978 1095.428589,1071.024902 
z"/>
<path fill="#FBFBFB" opacity="1.000000" stroke="none" 
	d="
M1228.269287,1456.869141 
	C1189.100220,1462.708618 1150.269043,1468.425049 1111.409058,1473.939453 
	C1105.710693,1474.748169 1099.879150,1474.716064 1094.103760,1474.866577 
	C1075.833618,1475.342651 1057.548706,1475.428589 1039.291992,1476.199951 
	C1005.008545,1477.648315 970.733826,1478.316162 936.547974,1474.836792 
	C870.551392,1468.120117 807.139771,1452.215576 748.626709,1419.956299 
	C735.682922,1412.820190 723.200989,1404.707520 711.173035,1396.111694 
	C705.775757,1392.254639 701.787476,1386.284424 697.563965,1380.953003 
	C684.448425,1364.396729 669.622742,1349.170288 659.062866,1330.622559 
	C643.963196,1304.100952 632.087769,1276.403564 627.564514,1245.998169 
	C623.622742,1219.500732 626.256409,1193.998535 638.867981,1169.807739 
	C651.448792,1145.676025 671.707458,1134.307007 698.134216,1133.068604 
	C727.215576,1131.705811 754.810608,1138.968018 781.876770,1148.678345 
	C818.673706,1161.879639 853.281860,1179.589478 886.765686,1199.638184 
	C904.155823,1210.050415 921.011658,1210.675171 939.159546,1199.593384 
	C958.288574,1187.912476 978.788635,1178.468018 998.742676,1168.148804 
	C1039.829956,1146.900269 1080.617676,1125.035767 1122.154541,1104.703369 
	C1163.789307,1084.322998 1207.151733,1068.252808 1252.905640,1059.551392 
	C1276.081909,1055.143799 1299.392090,1052.795776 1322.825684,1057.961182 
	C1335.398193,1060.732544 1346.854492,1065.748779 1356.646729,1074.818848 
	C1374.109985,1094.352173 1381.595337,1117.948608 1385.900879,1142.802002 
	C1389.153931,1161.579834 1389.534424,1180.526245 1388.040894,1199.524170 
	C1385.449341,1232.488403 1378.428589,1264.492188 1367.680298,1295.738281 
	C1365.690552,1301.523193 1364.698486,1307.644287 1363.077515,1313.564087 
	C1350.405884,1359.839722 1327.141968,1399.232056 1288.133423,1428.285889 
	C1270.176880,1441.660156 1250.050537,1450.586182 1228.269287,1456.869141 
M1257.026001,1237.856689 
	C1271.931396,1236.267090 1280.326782,1226.465698 1286.883667,1214.278564 
	C1288.773193,1210.766724 1290.877075,1207.368896 1292.923340,1203.942993 
	C1308.962036,1177.090210 1317.925293,1148.431641 1316.192383,1116.752930 
	C1315.557617,1105.149048 1310.977051,1096.843140 1300.255859,1092.165039 
	C1298.280273,1091.302979 1296.276733,1090.285034 1294.187256,1089.942505 
	C1285.442017,1088.509399 1276.694214,1086.723511 1267.879517,1086.192505 
	C1260.005249,1085.718384 1251.993164,1086.292969 1244.130127,1087.183716 
	C1234.236938,1088.304688 1224.281738,1089.590698 1214.623779,1091.924561 
	C1196.422241,1096.322998 1179.797729,1104.572998 1164.197266,1114.850220 
	C1154.516479,1121.227661 1145.919189,1128.780762 1139.797729,1138.802490 
	C1130.801880,1153.529785 1130.530518,1168.406738 1141.192627,1182.090576 
	C1147.038330,1189.592896 1154.212524,1196.443970 1161.911865,1202.042725 
	C1181.468994,1216.264526 1203.879272,1224.807373 1226.808960,1231.906494 
	C1236.351440,1234.860596 1245.756470,1238.843262 1257.026001,1237.856689 
z"/>
<path fill="#3D2D0C" opacity="1.000000" stroke="none" 
	d="
M504.733459,727.703125 
	C504.341034,746.009766 502.551544,764.637390 503.292786,783.163696 
	C504.167755,805.032227 506.616760,826.894104 509.479797,848.614380 
	C514.676819,888.041321 522.765320,926.943237 532.529785,965.500671 
	C533.160400,967.990906 532.454834,971.113037 531.557312,973.653809 
	C511.666840,1029.957031 491.300293,1086.095947 471.940674,1142.580078 
	C467.295593,1156.132568 465.800842,1170.783569 463.072144,1184.970703 
	C456.478821,1219.250244 449.601807,1253.482666 443.593323,1287.865845 
	C435.106720,1336.429688 436.256866,1384.395996 456.039703,1430.500244 
	C473.369324,1470.887329 503.039917,1499.384277 542.495911,1518.029907 
	C574.035706,1532.934326 607.531189,1540.318970 642.104126,1543.026245 
	C657.520264,1544.233398 673.021484,1544.327026 688.471375,1545.161133 
	C690.733948,1545.283203 693.360901,1546.191040 695.086670,1547.620117 
	C741.380005,1585.951660 791.364929,1618.367310 846.599304,1642.370239 
	C879.580261,1656.702515 913.738220,1666.956665 949.609497,1670.768188 
	C971.914490,1673.138184 994.155701,1672.359741 1016.638428,1668.032715 
	C1000.710632,1685.793701 981.906677,1700.556396 961.259705,1712.956909 
	C922.279358,1736.368286 879.934875,1747.001831 834.536255,1746.092773 
	C794.240356,1745.285767 755.949829,1735.498047 718.887329,1720.412231 
	C674.176147,1702.213257 633.267456,1677.523438 595.625793,1647.320435 
	C593.587524,1645.684937 590.219849,1645.202759 587.431824,1645.080933 
	C548.476440,1643.378906 511.915649,1633.767456 479.050018,1612.188721 
	C440.869629,1587.120605 417.795380,1551.261475 406.239349,1507.725830 
	C402.756256,1494.603638 400.056000,1481.013428 399.239777,1467.502197 
	C397.878784,1444.973999 396.628235,1422.206665 398.344818,1399.770630 
	C402.680023,1343.108643 413.605438,1287.463379 427.909363,1232.469971 
	C441.525452,1180.121094 457.529449,1128.520874 476.402740,1077.842529 
	C480.290619,1067.402832 478.751617,1057.122559 478.667389,1046.695190 
	C478.635437,1042.739136 478.254913,1038.787354 478.145630,1034.830566 
	C477.572021,1014.055542 476.752350,993.282166 476.564667,972.503235 
	C476.381134,952.182617 476.422119,931.840271 477.157806,911.536255 
	C477.944366,889.829590 479.291168,868.126587 481.051056,846.475525 
	C483.869873,811.796570 489.075287,777.481567 498.983093,744.025269 
	C500.586426,738.611206 502.621063,733.324768 504.733459,727.703125 
z"/>
<path fill="#E72E36" opacity="1.000000" stroke="none" 
	d="
M1101.167969,516.113708 
	C1098.392944,520.683350 1096.149780,525.228333 1093.018066,529.044006 
	C1087.040283,536.327454 1079.904541,536.856567 1072.417236,531.071533 
	C1064.425293,524.896606 1059.483521,516.356934 1054.991089,507.614441 
	C1041.967285,482.269592 1034.260010,455.088593 1028.035645,427.454742 
	C1021.816223,399.843323 1017.342102,371.920593 1016.093018,343.632843 
	C1015.340271,326.586639 1014.804016,309.379211 1016.267761,292.425262 
	C1018.087036,271.351715 1032.352905,258.612671 1053.574707,257.035431 
	C1062.482300,256.373444 1071.534058,256.242859 1080.421631,257.010773 
	C1099.788330,258.684113 1111.258911,268.514008 1115.804688,287.382477 
	C1117.895264,296.059906 1119.153687,305.050659 1119.704468,313.966339 
	C1121.913086,349.710419 1122.396362,385.499481 1119.782837,421.238098 
	C1117.744507,449.112183 1114.602539,476.873169 1105.955322,503.662598 
	C1104.630127,507.768250 1102.861816,511.730927 1101.167969,516.113708 
z"/>
<path fill="#E72E36" opacity="1.000000" stroke="none" 
	d="
M1527.295654,631.291626 
	C1493.635742,652.043579 1459.552002,671.235046 1422.358643,684.039917 
	C1411.110718,687.912415 1399.250977,690.090210 1387.571899,692.576965 
	C1384.110107,693.314087 1380.236450,692.871399 1376.676147,692.252502 
	C1365.093018,690.239197 1360.838379,683.708740 1363.473633,672.261536 
	C1366.408203,659.514221 1373.171753,648.599243 1380.518799,638.064636 
	C1402.219238,606.949158 1429.061401,580.628845 1457.804443,556.165161 
	C1479.517456,537.684814 1502.253296,520.513977 1527.132812,506.495148 
	C1533.822266,502.725800 1541.467773,500.079498 1549.005859,498.521759 
	C1560.905884,496.062653 1571.389160,500.299011 1580.001831,508.684570 
	C1590.308228,518.719238 1597.672607,530.749817 1602.587280,544.217468 
	C1607.117920,556.633362 1605.399048,568.585144 1596.855835,578.462158 
	C1590.060425,586.318726 1582.301636,593.635864 1573.928223,599.769531 
	C1558.900269,610.777710 1543.089233,620.716736 1527.295654,631.291626 
z"/>
<path fill="#E72E36" opacity="1.000000" stroke="none" 
	d="
M1250.231689,459.297546 
	C1259.532837,417.666626 1272.514160,377.702271 1291.090576,339.724060 
	C1295.207886,331.306519 1300.469116,323.169708 1306.551880,316.056610 
	C1316.025513,304.978088 1328.686523,301.919952 1342.837036,305.443207 
	C1354.931030,308.454468 1365.967896,313.809967 1376.189453,320.859863 
	C1391.593872,331.484558 1396.324219,346.497314 1391.327148,363.780914 
	C1386.911499,379.053192 1381.062500,393.994568 1374.795166,408.631927 
	C1357.793213,448.340546 1338.007568,486.616882 1313.370605,522.210754 
	C1302.929077,537.295837 1291.797241,551.865723 1277.192261,563.301941 
	C1274.459839,565.441467 1271.456543,567.344788 1268.336548,568.859619 
	C1257.934570,573.909912 1249.774536,570.938110 1246.302734,559.877686 
	C1243.942017,552.356689 1242.559082,544.317200 1242.145386,536.435791 
	C1240.837036,511.505310 1244.646362,487.002808 1249.648926,462.663361 
	C1249.849976,461.686066 1249.980103,460.694183 1250.231689,459.297546 
z"/>
<path fill="#3E2E0C" opacity="1.000000" stroke="none" 
	d="
M819.756348,515.995056 
	C819.988159,516.481628 820.105225,517.241394 819.812988,517.778198 
	C807.185303,540.972839 804.165466,566.415466 803.125366,592.117432 
	C801.373962,635.396240 806.259888,678.211792 813.655762,720.776062 
	C816.470886,736.977478 819.558044,753.131592 822.620178,769.847595 
	C813.103271,774.139038 803.447571,778.547485 793.742493,782.844299 
	C789.502502,784.721497 785.161194,786.369812 780.485168,788.075012 
	C780.068237,761.053833 779.362854,734.059082 780.197510,707.112000 
	C780.927307,683.553955 783.008057,660.014038 785.187256,636.530640 
	C787.691284,609.546143 792.217163,582.852356 800.076721,556.852783 
	C804.461121,542.349060 809.478455,528.051636 819.756348,515.995056 
z"/>
<path fill="#E72E36" opacity="1.000000" stroke="none" 
	d="
M1359.249023,728.330078 
	C1357.332764,748.587219 1340.927002,763.792114 1320.324585,764.782471 
	C1301.579346,765.683533 1283.352783,750.953247 1279.944458,732.148010 
	C1276.013428,710.459229 1289.270752,689.967712 1310.310303,685.212769 
	C1331.925903,680.327576 1352.993896,693.290405 1358.353760,715.094421 
	C1359.361572,719.194397 1359.020020,723.626038 1359.249023,728.330078 
z"/>
<path fill="#E72E36" opacity="1.000000" stroke="none" 
	d="
M1228.406250,585.423340 
	C1249.143555,584.992310 1266.565063,598.995544 1269.878052,618.336182 
	C1273.351196,638.611694 1261.820190,658.013733 1242.219727,663.960205 
	C1226.488281,668.732849 1212.322998,665.008606 1201.131104,653.143005 
	C1189.943970,641.282532 1186.899902,626.931091 1192.784180,611.528442 
	C1198.551636,596.431885 1209.836792,587.791382 1226.001953,585.772644 
	C1226.662109,585.690247 1227.320435,585.592834 1228.406250,585.423340 
z"/>
<path fill="#E72E36" opacity="1.000000" stroke="none" 
	d="
M1079.850342,633.385681 
	C1057.895508,628.413696 1044.784302,609.062683 1048.071411,586.975281 
	C1051.128296,566.434387 1070.881104,551.925720 1092.900635,554.047546 
	C1112.892700,555.973999 1128.631958,574.737610 1127.932495,595.811096 
	C1127.131958,619.938660 1105.280273,637.217712 1079.850342,633.385681 
z"/>
<path fill="#EFB99D" opacity="1.000000" stroke="none" 
	d="
M699.025513,833.963745 
	C704.229858,841.108887 709.568176,847.738403 714.211853,854.823242 
	C722.098267,866.855530 721.326416,879.340149 714.847656,891.716736 
	C708.272461,904.277527 697.995728,913.467712 686.844604,921.777039 
	C671.427185,933.265625 655.168701,943.526733 636.790710,949.354370 
	C628.129150,952.101013 618.627441,952.856873 609.461365,953.162781 
	C600.833923,953.450806 595.919800,947.418579 593.743896,939.567444 
	C588.997803,922.442749 584.520935,905.243103 579.979980,888.062012 
	C572.966858,861.527466 567.876709,834.602966 565.338623,807.295593 
	C564.020752,793.116943 563.710144,778.779785 567.042847,764.657776 
	C570.156921,751.462585 577.620605,741.466980 588.985596,734.393005 
	C597.585571,729.040100 606.544861,730.196411 615.257141,734.172119 
	C626.202332,739.166809 635.645569,746.560791 642.802917,756.003174 
	C658.866699,777.195374 674.167114,798.966858 689.742188,820.528625 
	C692.859375,824.843994 695.816223,829.275208 699.025513,833.963745 
z"/>
<path fill="#EFB99C" opacity="1.000000" stroke="none" 
	d="
M873.577515,742.304443 
	C867.985107,731.044800 868.109131,719.083618 867.137451,707.379761 
	C864.993958,681.562317 862.947632,655.733459 861.242188,629.884155 
	C860.237610,614.658142 858.731079,599.378174 861.940552,584.171936 
	C864.661316,571.281067 870.781982,568.457397 883.404663,574.915161 
	C893.485718,580.072632 899.555786,589.583984 905.799805,598.628662 
	C921.089661,620.776367 932.011169,645.288391 943.982666,669.242432 
	C949.554016,680.390137 956.222229,690.997559 961.615051,702.223755 
	C964.875366,709.010742 967.729248,716.349487 968.851562,723.731384 
	C971.033020,738.080505 964.291809,748.773743 952.343628,756.398499 
	C941.147034,763.543518 928.704468,767.116089 915.615784,767.885559 
	C896.094849,769.033081 881.982971,760.550659 873.577515,742.304443 
z"/>
<path fill="#FBFBFA" opacity="1.000000" stroke="none" 
	d="
M862.899414,985.325562 
	C868.303711,1009.678772 860.904236,1030.797852 848.116516,1050.522461 
	C839.631714,1063.610107 828.742065,1074.409058 814.125671,1080.476074 
	C806.439331,1083.666626 798.530945,1086.580200 789.646729,1083.873535 
	C778.646301,1080.521973 771.802307,1073.436157 767.995300,1062.887817 
	C762.163391,1046.728882 765.157349,1031.051636 771.040283,1015.774597 
	C779.439697,993.962646 792.817688,976.100769 814.294556,965.537048 
	C818.836670,963.302917 823.996643,961.741577 829.019165,961.174438 
	C845.787598,959.280884 856.877930,967.327087 862.899414,985.325562 
z"/>
<path fill="#FBFAFA" opacity="1.000000" stroke="none" 
	d="
M1088.560059,881.635010 
	C1113.642700,843.937195 1165.536987,840.280762 1195.362305,873.822998 
	C1212.158081,892.711975 1209.223511,910.921997 1186.417236,921.794739 
	C1158.390625,935.156189 1129.779785,934.670349 1101.844482,921.090149 
	C1096.392090,918.439575 1091.587524,913.700134 1087.603760,908.979370 
	C1082.813477,903.302673 1081.182129,896.385437 1084.934082,889.130188 
	C1086.152710,886.773621 1087.216187,884.336731 1088.560059,881.635010 
z"/>
</svg>